<svg xmlns="http://www.w3.org/2000/svg" viewBox="0 0 1200 600" font-family="'Segoe UI', Verdana, sans-serif">
  <title>Guilde des Aventuriers de LeDeutsch — dusk — drink</title>
  <g id="background">
  <rect x="0" y="0" width="1200" height="400" fill="#d4b085"/>
  <rect x="0" y="380" width="1200" height="10" fill="#8b5a3c"/>
  <rect x="0" y="390" width="1200" height="210" fill="#7a4a2a"/>
  <line x1="0" y1="450" x2="1200" y2="450" stroke="#5d3a20" stroke-width="1" opacity="0.5"/>
  <line x1="0" y1="510" x2="1200" y2="510" stroke="#5d3a20" stroke-width="1" opacity="0.5"/>
  <line x1="0" y1="570" x2="1200" y2="570" stroke="#5d3a20" stroke-width="1" opacity="0.5"/>

  <rect x="500" y="60" width="200" height="140" fill="#a8d8f0"/>
  <rect x="500" y="60" width="200" height="140" fill="none" stroke="#5d3a26" stroke-width="6"/>
  <line x1="600" y1="60" x2="600" y2="200" stroke="#5d3a26" stroke-width="4"/>
  <line x1="500" y1="130" x2="700" y2="130" stroke="#5d3a26" stroke-width="4"/>
  <ellipse cx="540" cy="90" rx="18" ry="8" fill="white" opacity="0.8"/>
  <ellipse cx="660" cy="115" rx="22" ry="9" fill="white" opacity="0.8"/>

  <rect x="60" y="80" width="220" height="200" fill="#c8a878" stroke="#5d3a26" stroke-width="4"/>
  <rect x="60" y="80" width="220" height="30" fill="#8b5a3c"/>
  <text x="170" y="102" text-anchor="middle" font-size="16" font-weight="bold" fill="#f5e6c8">TABLEAU DES QUÊTES</text>
  <rect x="80" y="125" width="180" height="22" fill="#f5e6c8" stroke="#8b5a3c"/>
  <rect x="80" y="153" width="180" height="22" fill="#f5e6c8" stroke="#8b5a3c"/>
  <rect x="80" y="181" width="180" height="22" fill="#f5e6c8" stroke="#8b5a3c"/>
  <rect x="80" y="209" width="180" height="22" fill="#f5e6c8" stroke="#8b5a3c"/>
  <rect x="80" y="237" width="180" height="22" fill="#f5e6c8" stroke="#8b5a3c"/>

  <rect x="440" y="90" width="10" height="80" fill="#5d3a26"/>
  <path d="M445 90 Q438 70 445 55 Q452 70 445 90 Z" fill="#ff9933">
    <animate attributeName="fill" values="#ff9933;#ffbb44;#ff7722;#ff9933" dur="0.7s" repeatCount="indefinite"/>
  </path>
  <path d="M445 82 Q440 70 445 60 Q450 70 445 82 Z" fill="#ffcc66">
    <animate attributeName="opacity" values="1;0.7;1" dur="0.5s" repeatCount="indefinite"/>
  </path>
  <rect x="750" y="90" width="10" height="80" fill="#5d3a26"/>
  <path d="M755 90 Q748 70 755 55 Q762 70 755 90 Z" fill="#ff9933">
    <animate attributeName="fill" values="#ff9933;#ff7722;#ffbb44;#ff9933" dur="0.8s" repeatCount="indefinite"/>
  </path>
  <path d="M755 82 Q750 70 755 60 Q760 70 755 82 Z" fill="#ffcc66">
    <animate attributeName="opacity" values="0.7;1;0.7" dur="0.6s" repeatCount="indefinite"/>
  </path>

  <rect x="900" y="100" width="220" height="160" fill="#f0e0c0" stroke="#5d3a26" stroke-width="5"/>
  <polygon points="920,240 1010,150 1100,200 1100,240" fill="#7a9a6a"/>
  <circle cx="1080" cy="130" r="18" fill="#ffcc44"/>
  <text x="1010" y="255" text-anchor="middle" font-size="10" fill="#5d3a26">— Les Terres du Sud —</text>

  <rect x="380" y="380" width="440" height="130" fill="#6b4028" stroke="#3d1a06" stroke-width="4"/>
  <rect x="380" y="380" width="440" height="14" fill="#8b5a3c"/>
  <rect x="380" y="380" width="440" height="4" fill="#a06d47"/>
  <rect x="420" y="420" width="80" height="70" fill="#5d3520" stroke="#3d1a06" stroke-width="2"/>
  <rect x="510" y="420" width="80" height="70" fill="#5d3520" stroke="#3d1a06" stroke-width="2"/>
  <rect x="600" y="420" width="80" height="70" fill="#5d3520" stroke="#3d1a06" stroke-width="2"/>
  <rect x="690" y="420" width="80" height="70" fill="#5d3520" stroke="#3d1a06" stroke-width="2"/>
  <circle cx="460" cy="455" r="3" fill="#c8a878"/>
  <circle cx="550" cy="455" r="3" fill="#c8a878"/>
  <circle cx="640" cy="455" r="3" fill="#c8a878"/>
  <circle cx="730" cy="455" r="3" fill="#c8a878"/>

  <polygon points="0,400 300,400 300,510 0,540" fill="#6b4028" stroke="#3d1a06" stroke-width="3"/>
  <polygon points="0,400 300,400 300,414 0,414" fill="#8b5a3c"/>

  <polygon points="900,400 1200,400 1200,540 900,510" fill="#6b4028" stroke="#3d1a06" stroke-width="3"/>
  <polygon points="900,400 1200,400 1200,414 900,414" fill="#8b5a3c"/>

  <ellipse cx="800" cy="388" rx="18" ry="6" fill="#3d1a06"/>
  <path d="M785 388 Q785 365 800 358 Q815 365 815 388 Z" fill="#d4a020"/>
  <circle cx="800" cy="358" r="3" fill="#8b6a10"/>
</g>

  <g id="npcs">
  <g transform="translate(80, 300)" opacity="0.9">
    <ellipse cx="0" cy="60" rx="24" ry="30" fill="#3a2820"/>
    <circle cx="0" cy="55" r="20" fill="#f5d5b5"/>
    <ellipse cx="-6" cy="58" rx="1.5" ry="2" fill="#3a2a1a"/>
    <ellipse cx="6" cy="58" rx="1.5" ry="2" fill="#3a2a1a"/>
    <path d="M-4 66 Q0 68 4 66" stroke="#5d3a26" stroke-width="1" fill="none"/>
    <rect x="-18" y="82" width="36" height="20" fill="#6b4a3a" stroke="#5d3a26" stroke-width="1.5"/>
  </g>

  <g transform="translate(1120, 300)" opacity="0.9">
    <path d="M-28 40 Q-32 20 -12 25 Q0 15 12 25 Q32 20 28 40 L28 90 L-28 90 Z" fill="#a04030"/>
    <circle cx="0" cy="55" r="20" fill="#f5d5b5"/>
    <ellipse cx="-6" cy="58" rx="1.5" ry="2" fill="#3a2a1a"/>
    <ellipse cx="6" cy="58" rx="1.5" ry="2" fill="#3a2a1a"/>
    <path d="M-4 66 Q0 68 4 66" stroke="#5d3a26" stroke-width="1" fill="none"/>
    <rect x="-18" y="82" width="36" height="20" fill="#4a5a6a" stroke="#5d3a26" stroke-width="1.5"/>
  </g>

  <g transform="translate(340, 320)" opacity="0.85">
    <polygon points="-16,-8 16,-8 22,-2 -22,-2" fill="#5d3a20"/>
    <ellipse cx="0" cy="-8" rx="16" ry="4" fill="#7a4a2a"/>
    <circle cx="0" cy="18" r="16" fill="#f5d5b5"/>
    <rect x="-15" y="32" width="30" height="45" fill="#5a4030" stroke="#3a2820" stroke-width="1.5"/>
    <rect x="-22" y="40" width="8" height="30" fill="#7a5040"/>
    <rect x="14" y="40" width="8" height="30" fill="#7a5040"/>
    <rect x="-4" y="32" width="8" height="18" fill="#8b6a10"/>
  </g>

  <g transform="translate(1000, 340)" opacity="0.7">
    <rect x="-14" y="20" width="28" height="45" fill="#3a5a3a" stroke="#1a2a1a" stroke-width="1.5"/>
    <circle cx="0" cy="10" r="14" fill="#f5d5b5"/>
    <path d="M-14 -2 Q0 -12 14 -2 L14 8 L-14 8 Z" fill="#8b3a3a"/>
    <ellipse cx="8" cy="35" rx="8" ry="14" fill="#6a4a2a" stroke="#3a2820" stroke-width="1"/>
  </g>
</g>

  
  <rect x="0" y="0" width="1200" height="600" fill="#ff9966" opacity="0.28"/>
  <g id="mascot-drink">
  <animateTransform attributeName="transform" type="translate" values="0,0;0,-3;0,0" dur="4s" repeatCount="indefinite"/>
  <rect x="560" y="330" width="180" height="60" fill="#e8d4a0" stroke="#5d3a26" stroke-width="3"/>
  <path d="M560 260 L740 260 L740 340 L560 340 Z" fill="#8b3a3a" stroke="#5d3a26" stroke-width="3"/>
  <rect x="620" y="260" width="60" height="80" fill="#faf0e0"/>
  <polygon points="630,268 670,268 665,282 635,282" fill="#ffcc33" stroke="#8b6a10" stroke-width="1"/>
  <polygon points="640,275 660,275 655,290 645,290" fill="#e0a010"/>
  <rect x="638" y="245" width="24" height="20" fill="#fce4c4"/>
  <ellipse cx="650" cy="215" rx="55" ry="60" fill="#fce4c4"/>
  <path d="M595 210 Q595 155 650 148 Q705 155 705 210 L710 320 Q700 340 695 300 L695 210 L605 210 L605 300 Q600 340 590 320 Z" fill="#6b3a20"/>
  <path d="M600 190 Q610 220 640 218 L660 218 Q690 220 700 190 Q690 165 650 160 Q610 165 600 190 Z" fill="#6b3a20"/>
  <path d="M700 210 Q715 260 705 300 Q700 275 695 240 Z" fill="#6b3a20"/>
  <path d="M600 210 Q585 260 595 300 Q600 275 605 240 Z" fill="#6b3a20"/>

  <ellipse cx="628" cy="222" rx="7" ry="10" fill="#3a2a1a">
    <animate attributeName="ry" values="10;10;10;10;10;10;10;10;10;1;10" dur="5s" repeatCount="indefinite"/>
  </ellipse>
  <ellipse cx="672" cy="222" rx="7" ry="10" fill="#3a2a1a">
    <animate attributeName="ry" values="10;10;10;10;10;10;10;10;10;1;10" dur="5s" repeatCount="indefinite"/>
  </ellipse>
  <circle cx="630" cy="219" r="2.5" fill="white"/>
  <circle cx="674" cy="219" r="2.5" fill="white"/>
  <path d="M620 208 Q628 205 636 208" stroke="#5d3a26" stroke-width="2" fill="none" stroke-linecap="round"/>
  <path d="M664 208 Q672 205 680 208" stroke="#5d3a26" stroke-width="2" fill="none" stroke-linecap="round"/>
  <ellipse cx="612" cy="240" rx="7" ry="3" fill="#ffb6a0" opacity="0.7"/>
  <ellipse cx="688" cy="240" rx="7" ry="3" fill="#ffb6a0" opacity="0.7"/>

  <ellipse cx="650" cy="250" rx="4" ry="2.5" fill="#c04a4a"/>

  <path d="M540 300 Q555 285 585 275 L635 265 Q640 270 630 278 L590 288 Q560 295 555 320 Q550 340 540 380 Z" fill="#faf0e0" stroke="#5d3a26" stroke-width="2"/>
  <circle cx="633" cy="270" r="12" fill="#fce4c4" stroke="#5d3a26" stroke-width="2"/>

  <rect x="620" y="255" width="30" height="22" rx="4" fill="#faf0e0" stroke="#5d3a26" stroke-width="2"/>
  <ellipse cx="635" cy="257" rx="12" ry="3" fill="#7a4a2a"/>
  <path d="M650 260 Q660 262 660 268 Q660 274 650 274" fill="none" stroke="#5d3a26" stroke-width="2"/>

  <path d="M632 250 Q636 245 634 240" stroke="#c8c8c8" stroke-width="1.5" fill="none" opacity="0.6">
    <animate attributeName="opacity" values="0.2;0.8;0.2" dur="2s" repeatCount="indefinite"/>
  </path>
  <path d="M638 250 Q642 244 640 238" stroke="#c8c8c8" stroke-width="1.5" fill="none" opacity="0.6">
    <animate attributeName="opacity" values="0.8;0.2;0.8" dur="2s" repeatCount="indefinite"/>
  </path>

  <rect x="730" y="290" width="30" height="90" rx="15" fill="#faf0e0" stroke="#5d3a26" stroke-width="2"/>
  <circle cx="745" cy="382" r="12" fill="#fce4c4" stroke="#5d3a26" stroke-width="2"/>
</g>

  
</svg>
